# xmcd
#
# Track frame offsets:
#	150
#	15915
#	29158
#	42263
#	56450
#	68765
#	85610
#	100730
#	115808
#	127718
#	144215
#	159295
#	172583
#	185730
#	200415
#	213610
#	224425
#	237555
#	252973
#	272133
#
# Disc length: 3883 seconds
#
# Revision: 0
# Processed by: cddbd v1.5.1PL0 Copyright (c) Steve Scherf et al.
# Submitted via: dBpowerAMP V4.0
#
DISCID=100f2914
DTITLE=Various Artist - Le Club des Club
DYEAR=1900
DGENRE=Dance
TTITLE0=Freddie Mercury - Living on my Own
TTITLE1=Urban Cookie COllective - Feels Like Heaven
TTITLE2=Black Baron - Girl Love You So
TTITLE3=Lena - I Wanna Be With You
TTITLE4=Cappela - Move Oon Baby
TTITLE5=Magic Affair - Omen II
TTITLE6=Culture Beat - Anything
TTITLE7=Unity Power feat. Rozlyne Clarke - Dancing is Like making Love
TTITLE8=Dr Alban - Look Who's Talking
TTITLE9=Eartha Kitt - Where is my Man
TTITLE10=Th Express - Runaway Train
TTITLE11=The Riders - Bang
TTITLE12=Doop - Doop
TTITLE13=K. Klass - Let Me Show You
TTITLE14=Barbara Tucker - Beautilful People
TTITLE15=Robin's - What I Do Best
TTITLE16=Sharon S. - Wonderful
TTITLE17=Eternal - Stay
TTITLE18=Charles and Eddie - Stop the World
TTITLE19=Dao Dezi - La Jument De Mishao
EXTD=
EXTT0=
EXTT1=
EXTT2=
EXTT3=
EXTT4=
EXTT5=
EXTT6=
EXTT7=
EXTT8=
EXTT9=
EXTT10=
EXTT11=
EXTT12=
EXTT13=
EXTT14=
EXTT15=
EXTT16=
EXTT17=
EXTT18=
EXTT19=
PLAYORDER=
